<svg width="16" height="16" viewBox="0 0 16 16" fill="currentColor" xmlns="http://www.w3.org/2000/svg">
<path fill-rule="evenodd" clip-rule="evenodd" d="M13.7958 2.09692C13.9242 2.19112 14 2.3408 14 2.5L14 12.4C14 12.6184 13.8583 12.8115 13.6499 12.877L10.1499 13.977C10.0582 14.0058 9.96012 14.0076 9.86742 13.9821L6.00942 12.9212L2.64991 13.977C2.49804 14.0247 2.3325 13.9973 2.20416 13.9031C2.07582 13.8089 2 13.6592 2 13.5L2 3.6C2 3.38161 2.14174 3.18849 2.35009 3.12301L5.85009 2.02301C5.9418 1.99418 6.03988 1.99241 6.13258 2.0179L9.99058 3.07885L13.3501 2.02301C13.502 1.97527 13.6675 2.00272 13.7958 2.09692ZM9.5 3.98107L6.5 3.15607L6.5 12.0189L9.5 12.8439L9.5 3.98107ZM10.5 12.8187L10.5 3.96697L13 3.18126L13 12.033L10.5 12.8187ZM5.5 12.033L5.5 3.18126L3 3.96697L3 12.8187L5.5 12.033Z" />
</svg>
